<svg width="173" height="36" viewBox="0 0 173 36" fill="none" xmlns="http://www.w3.org/2000/svg">
<g clip-path="url(#clip0_3584_8577)">
<path d="M43.1847 29.2139C43.4093 28.1473 43.1348 27.3473 41.7748 25.0466C40.6269 23.0994 40.1278 22.256 39.4478 21.0778C39.0298 20.3461 38.5682 19.5461 38.4247 19.3104C38.2812 19.0686 38.1315 18.8019 38.0816 18.7089C38.0317 18.6159 37.9631 18.5291 37.9256 18.5167C37.8695 18.4919 35.7234 19.4469 35.4739 19.6081C35.3866 19.6639 35.4302 19.7445 36.235 21.1088C36.5157 21.5863 36.8589 22.1692 36.9961 22.4111C37.4266 23.1552 38.6493 25.2575 38.7678 25.4497C38.8365 25.5489 38.9051 25.6792 38.93 25.7288C38.955 25.7784 39.0985 26.0326 39.2544 26.2869C40.0654 27.6077 40.2526 28.1907 40.0467 28.7302C39.9219 29.0588 39.7597 29.2139 39.3542 29.3999L39.0423 29.5425L31.369 29.5736L23.6957 29.6046L23.1654 29.803C22.8722 29.9084 21.8054 30.2681 20.7948 30.5968C19.7841 30.9254 18.8983 31.2169 18.8296 31.2417C18.761 31.2727 18.0748 31.4959 17.3012 31.744C16.5276 31.9921 15.8539 32.2339 15.804 32.2773C15.7291 32.3517 17.5008 32.3641 27.6883 32.3641C35.6798 32.3641 39.7972 32.3393 40.0654 32.2959C41.6874 32.0355 42.8353 30.9006 43.1847 29.2139Z" fill="#FFFFFF"/>
<path d="M6.49566 29.8402C6.75768 29.6852 7.60611 29.1705 8.37968 28.7054C10.7753 27.2605 10.7378 27.2853 10.9312 26.938C11.0997 26.6341 12.0479 25.0032 12.965 23.4343C13.2145 23.0064 13.4765 22.5599 13.5451 22.4421C13.6886 22.1816 14.7055 20.4329 15.8971 18.3802C16.3712 17.5617 16.8203 16.7803 16.889 16.6439C16.9638 16.5075 17.0387 16.3834 17.0574 16.3648C17.0761 16.3462 17.1635 16.2098 17.2508 16.0548C17.3381 15.8997 17.5191 15.5959 17.6438 15.3726C17.7748 15.1494 17.9433 14.8579 18.0181 14.7153C18.1616 14.4548 18.3924 14.0704 18.5359 13.8533C18.5734 13.7851 18.6295 13.6859 18.6545 13.6363C18.6732 13.5867 18.7418 13.475 18.7979 13.3882C18.8603 13.3014 18.9726 13.1092 19.06 12.9541C19.2534 12.6068 19.7462 11.7387 19.8273 11.6022C19.8647 11.5464 20.1205 11.1061 20.395 10.6286C20.6757 10.1511 20.9565 9.67365 21.0188 9.56202C21.0875 9.4504 21.337 9.02251 21.5803 8.60082C21.8236 8.17914 22.3975 7.19313 22.853 6.41177C23.3084 5.62421 23.7451 4.88006 23.8137 4.74983C24.0008 4.40256 24.5373 3.92506 24.8243 3.84445C25.3421 3.70182 25.8973 3.81344 26.2529 4.1297C26.3902 4.25373 26.7832 4.73743 26.7832 4.78704C26.7832 4.81184 27.3759 5.84746 28.6111 7.96209C28.8481 8.37138 29.0977 8.80547 29.1663 8.92329C29.3909 9.32017 29.3223 9.32017 30.7134 8.86748C31.4121 8.63183 31.9986 8.40859 32.011 8.37138C32.0298 8.30936 31.8738 8.02411 30.963 6.47379C30.8008 6.20093 30.2518 5.25214 29.7465 4.36535C28.6859 2.50497 28.3366 1.97786 27.8063 1.44455C27.3634 0.998059 26.7208 0.656989 26.0533 0.520561C25.1924 0.340724 24.4313 0.433743 23.6203 0.836826C22.7095 1.28332 22.173 1.94065 20.9814 4.05529C20.8691 4.25993 20.4262 5.01649 20.002 5.74204C19.5778 6.46759 19.2346 7.06911 19.2346 7.08771C19.2346 7.10012 19.0974 7.34197 18.9227 7.62102C18.7543 7.90008 18.6108 8.13573 18.6108 8.14813C18.6108 8.16053 18.3924 8.54501 18.1242 8.99771C17.8559 9.4504 17.4005 10.2256 17.1136 10.7217C16.8328 11.2178 16.4398 11.8875 16.2464 12.21C16.0593 12.5324 15.8659 12.8549 15.8284 12.9231C15.791 12.9913 15.4292 13.6177 15.0237 14.3184C14.6182 15.0191 14.1191 15.8811 13.9132 16.2408C13.7073 16.6005 13.4017 17.1276 13.227 17.419C12.809 18.1322 12.5969 18.4919 11.5675 20.3026C11.3679 20.6437 10.9936 21.2824 10.7316 21.7165C10.4696 22.1568 10.2512 22.5227 10.2512 22.5351C10.2512 22.5537 10.1389 22.7459 10.0017 22.9692C9.86444 23.1924 9.75215 23.3909 9.75215 23.4033C9.75215 23.4219 9.68352 23.5397 9.60866 23.6699C9.52756 23.794 9.24059 24.2777 8.97234 24.7365C7.78079 26.7892 7.1507 27.8806 7.0696 28.0232C6.95107 28.2279 6.73272 28.5999 6.30227 29.3317C5.98411 29.8712 5.87805 30.1317 5.98411 30.1317C6.00282 30.1317 6.23365 30.0014 6.49566 29.8402Z" fill="#FFFFFF"/>
<path d="M14.1495 30.8572C15.1976 30.4851 19.7829 28.8418 20.4816 28.5813C20.8434 28.4511 21.2614 28.2961 21.4173 28.2465C21.5733 28.1968 21.8104 28.11 21.9476 28.0604C22.3469 27.9116 23.763 27.4093 24.4118 27.186C24.9358 27 25.3975 26.8326 26.8136 26.3179C27.0195 26.2434 27.2316 26.1628 27.2815 26.1442C27.3314 26.1256 27.4999 26.0636 27.6558 26.014C28.0551 25.8838 28.6353 25.6791 30.0264 25.1706C30.694 24.9288 31.611 24.6001 32.0539 24.4513C32.5031 24.2962 32.9523 24.1288 33.0646 24.0792C33.1706 24.0296 33.2767 23.9924 33.3016 23.9924C33.3391 23.9924 34.2748 23.6575 34.724 23.4839C34.8176 23.4467 34.8737 23.3971 34.8488 23.3661C34.8238 23.3412 33.3266 22.8265 31.5237 22.2312C29.5648 21.5863 28.2485 21.115 28.2485 21.0716C28.2485 21.0034 28.7351 20.7057 28.8474 20.7057C28.8723 20.7057 29.1905 20.5693 29.5523 20.3956C29.9141 20.2282 30.5505 19.9367 30.9747 19.7507C31.3989 19.5647 31.8294 19.3724 31.9292 19.3228C32.0352 19.267 32.5405 19.0376 33.0521 18.8143C33.5699 18.5849 34.1438 18.3306 34.331 18.2438C35.8781 17.5307 35.9156 17.5182 36.764 17.1462C37.9368 16.6315 38.386 16.402 38.3236 16.34C38.2924 16.309 36.9012 15.8315 35.2356 15.2796C32.5468 14.3928 32.2161 14.2688 32.2848 14.182C32.3534 14.0951 34.6242 12.7061 36.109 11.8379C36.5831 11.5588 38.8165 10.2193 40.0704 9.45039C40.7005 9.06591 42.2102 8.15432 42.5034 7.98069C43.0773 7.63962 45.0237 6.47378 45.7037 6.05829C46.1467 5.79164 46.521 5.57459 46.5335 5.57459C46.5459 5.57459 46.6769 5.48777 46.8204 5.38855C46.9577 5.28313 47.1012 5.20251 47.1323 5.20251C47.1573 5.20251 47.4131 5.05368 47.7 4.87385C47.9808 4.68781 48.3114 4.48317 48.4299 4.40875C48.6358 4.28473 48.6358 4.27232 48.4923 4.27852C48.3551 4.28473 46.9826 4.73742 46.652 4.88625C46.5834 4.91726 46.2028 5.04748 45.8098 5.17151C45.4168 5.29553 45.0362 5.41956 44.9676 5.45057C44.899 5.48157 44.3812 5.66141 43.8135 5.85365C43.2458 6.04589 42.0106 6.47378 41.0685 6.79624C40.1265 7.11871 39.1034 7.46598 38.7915 7.5714C38.4858 7.67062 38.1739 7.77604 38.1053 7.80705C38.0366 7.83806 37.5313 8.01789 36.9823 8.20393C36.4333 8.38997 35.1981 8.81166 34.2374 9.14032C33.2767 9.46899 32.2099 9.83487 31.8668 9.95269C31.5237 10.0643 31.0059 10.2442 30.7127 10.3496C30.4195 10.455 29.8206 10.6658 29.3714 10.8147C28.9285 10.9635 28.1549 11.2302 27.6558 11.4038C27.1567 11.5774 26.3457 11.8565 25.8467 12.0239C25.3476 12.1914 24.5802 12.4518 24.1311 12.6068C23.6881 12.7681 22.7898 13.0781 22.1348 13.2952C20.4317 13.8781 20.3443 13.9091 20.3381 13.9773C20.3318 14.0455 20.7561 14.2626 23.0705 15.3664C24.861 16.2222 25.0544 16.3214 25.0856 16.4144C25.098 16.4516 22.8459 17.6051 20.0823 18.9693C17.3187 20.3398 15.0541 21.4809 15.0541 21.5181C15.0541 21.5491 15.0915 21.5925 15.1352 21.6049C15.3286 21.6731 19.2152 23.0126 19.2963 23.0436C19.3462 23.0622 19.5957 23.1552 19.8515 23.242C20.1073 23.3288 20.3256 23.4343 20.3381 23.4715C20.3568 23.5273 19.7329 23.9924 19.6394 23.9924C19.6207 23.9924 19.3774 24.1412 19.0904 24.321C18.8097 24.5009 18.3293 24.7985 18.0174 24.9784C17.7117 25.1644 17.3561 25.3753 17.2376 25.4497C17.119 25.5303 16.2207 26.0698 15.2412 26.6589C14.2618 27.248 12.9143 28.0666 12.2468 28.4759C11.5793 28.8852 10.6372 29.4557 10.1569 29.741C9.31468 30.2433 8.81561 30.5471 5.9771 32.2711C5.25967 32.7052 4.21785 33.3315 3.66886 33.6664C3.11987 33.995 2.19658 34.5532 1.61016 34.9066C1.02998 35.2601 0.505952 35.5826 0.456044 35.6322C0.381182 35.7004 0.381182 35.7128 0.468521 35.7128C0.562098 35.7128 1.46044 35.4213 1.79732 35.2787C1.9408 35.2167 2.48355 35.0245 3.60648 34.6276C4.05565 34.4725 4.60463 34.2741 4.83546 34.1873C7.91103 33.0896 9.08386 32.668 9.56422 32.5005C9.85743 32.3951 10.2068 32.2711 10.344 32.2215C10.4813 32.1719 10.8057 32.054 11.0615 31.961C11.3172 31.868 11.6292 31.7564 11.7477 31.713C11.8662 31.6696 12.1781 31.5579 12.4339 31.4649C12.6897 31.3719 13.0453 31.2479 13.2137 31.1859C13.3884 31.1238 13.8064 30.975 14.1495 30.8572Z" fill="#FFB939"/>
<path d="M121.815 4.81313L119.783 4.88851L117.223 12.5627C115.823 16.7692 114.604 20.2369 114.528 20.252C114.378 20.2671 114.107 19.483 111.352 11.1002L109.289 4.81313H107.121C105.179 4.81313 104.953 4.84327 104.953 5.06943C104.953 5.28051 107.001 11.1756 108.642 15.6686C108.837 16.2113 109.545 18.2015 110.223 20.1163C110.885 22.016 111.623 24.0966 111.848 24.7148L112.27 25.8456L112.932 25.9662C113.806 26.1169 116.636 25.9511 116.832 25.7249C116.907 25.6194 117.073 25.1972 117.193 24.7902C117.389 24.1419 117.886 22.7548 118.744 20.4178C118.864 20.0861 119.09 19.4378 119.256 18.9855C119.406 18.5332 119.828 17.3723 120.159 16.4224C120.505 15.4726 121.017 14.0403 121.288 13.2563C121.574 12.4722 122.041 11.1455 122.342 10.3162C123.23 7.85868 124.224 5.03928 124.224 4.94881C124.224 4.75281 123.848 4.73774 121.815 4.81313Z" fill="#FFFFFF"/>
<path d="M163.933 25.78C164.099 26.0371 167.776 26.1278 168.107 25.8707C168.288 25.7497 168.318 24.2674 168.348 17.1737L168.394 8.62798L170.518 8.5826C172.583 8.55235 172.658 8.53723 172.749 8.20447C172.869 7.76584 172.869 5.31556 172.749 5.01306C172.673 4.8013 171.92 4.77106 165.967 4.77106H159.262L159.307 6.61632L159.352 8.47673L161.582 8.52211L163.798 8.56748V17.0678C163.798 21.7415 163.858 25.659 163.933 25.78Z" fill="#FFFFFF"/>
<path d="M137.298 4.48745C136.357 4.32009 134.204 4.28966 133.597 4.41138C131.019 4.95911 128.881 6.11545 127.35 7.81953C126.622 8.6107 125.606 10.4365 125.151 11.7298C124.696 12.9926 124.681 13.1904 124.666 15.427C124.65 17.5114 124.696 17.907 124.999 18.8504C126.182 22.4107 128.548 24.8755 131.914 26.0318C133.036 26.4274 133.324 26.4578 135.341 26.4578C137.51 26.4578 138.147 26.3513 139.587 25.7427C141.635 24.8755 143.394 23.354 144.546 21.4369C145.062 20.5849 145.805 18.7743 145.805 18.3939C145.805 18.257 145.881 18.0135 145.972 17.8462C146.047 17.6788 146.123 16.6442 146.123 15.5183C146.138 13.3273 145.896 12.171 145.077 10.4213C143.651 7.36307 140.573 5.01997 137.298 4.48745ZM141.635 16.7507C141.195 19.109 139.875 20.9804 137.995 21.9086C136.403 22.6845 133.749 22.5932 132.308 21.6803C130.838 20.7522 130.049 19.7632 129.412 17.9983C128.442 15.3205 129.063 12.2014 130.959 10.2691C131.732 9.47795 132.551 8.96064 133.522 8.64113C134.401 8.35204 136.524 8.38247 137.404 8.7172C139.345 9.41709 140.694 10.9386 141.392 13.1448C141.862 14.6967 141.907 15.2901 141.635 16.7507Z" fill="#FFFFFF"/>
<path d="M159.73 25.9359L160.138 25.9208L160.094 24.0673L160.05 22.2288L156.741 22.1836L153.417 22.1535V13.4887V4.8389L151.448 4.79369C150.355 4.76355 149.407 4.76355 149.334 4.79369C149.247 4.82383 149.188 8.62129 149.188 15.3874V25.9208L149.524 25.9962C149.772 26.0564 157.324 26.0112 159.73 25.9359Z" fill="#FFFFFF"/>
<path d="M76.2097 17.882C75.0467 18.8725 73.0786 20.6168 71.9156 21.6811L70.9017 22.6124L70.8868 24.1794C70.8719 25.3767 70.9167 25.7907 71.0658 25.8793C71.3043 26.0272 83.1578 26.0863 84.3804 25.9385L85.2452 25.835L85.2004 24.1202L85.1557 22.4055L81.0853 22.3316L76.9999 22.2577L78.7742 20.5281C79.7434 19.582 80.9958 18.3994 81.5475 17.882C82.8446 16.6994 84.2164 14.9108 84.6488 13.8021C85.1408 12.5604 85.1557 9.91432 84.6637 8.73172C83.9927 7.06131 82.7105 5.84914 80.9362 5.16915C79.8179 4.74046 77.328 4.63699 76.1352 4.9622C74.0776 5.52393 72.5866 6.72131 71.6771 8.52476C71.185 9.51519 70.6483 11.7769 70.8272 12.2056C70.9017 12.3978 71.1999 12.4273 72.8699 12.3978L74.838 12.3534L75.0467 11.3186C75.494 9.16041 76.6421 8.22911 78.4313 8.61345C80.6081 9.05693 81.3984 11.156 80.2503 13.5212C79.7285 14.5708 78.4611 15.9455 76.2097 17.882Z" fill="#FFFFFF"/>
<path d="M91.8239 26.0318C92.6953 26.397 92.9808 26.4426 94.7387 26.4426L95.183 26.4461C96.1751 26.4538 97.1551 26.2285 98.0441 25.7883C100.358 24.6471 101.62 22.9885 102.086 20.4625C102.266 19.5191 102.326 18.2105 102.326 15.4258C102.326 11.1348 102.161 9.90224 101.41 8.35015C100.493 6.4633 98.3747 4.88078 96.2562 4.48515C93.5517 3.98301 90.8773 4.77427 88.9842 6.6459C88.248 7.36108 87.4066 9.00446 87.1662 10.2218C86.9108 11.4695 86.9558 19.5191 87.2263 20.7973C87.7371 23.2167 89.2396 24.9514 91.8239 26.0318ZM91.6886 10.1001C92.0492 9.32401 92.8756 8.59362 93.6268 8.35015C94.4532 8.09147 94.333 8.09147 95.2495 8.27407C96.6919 8.54797 97.5784 9.55226 97.7887 11.1348C97.8488 11.6065 97.8638 13.8433 97.8188 16.1106C97.7436 19.9756 97.7286 20.2495 97.4131 20.8429C96.8271 21.9537 95.6702 22.7298 94.5734 22.7298C94.0175 22.7298 92.9507 22.2733 92.515 21.8472C92.2746 21.619 91.929 21.1625 91.7638 20.8277C91.4482 20.2343 91.4332 20.0517 91.4332 15.4258C91.4332 11.2565 91.4633 10.5566 91.6886 10.1001Z" fill="#FFFFFF"/>
<path d="M60.0932 17.4033C59.3613 18.0391 57.7183 19.4882 56.4785 20.6268L54.1932 22.6674V24.2792C54.1932 25.8319 54.2082 25.891 54.5368 25.965C54.731 26.0241 57.9274 26.0389 61.6317 26.0093C67.0387 25.9797 68.4129 25.9206 68.5174 25.7727C68.5772 25.6692 68.622 24.9594 68.5921 24.2201C68.5622 23.4659 68.5473 22.7414 68.5323 22.5935C68.5323 22.3569 68.2336 22.3421 64.3949 22.3421H60.2426L63.4838 19.1925C67.442 15.3479 68.0394 14.505 68.3979 12.2574C68.5921 11.0448 68.5323 10.3942 68.0992 9.06336C67.427 6.97839 65.7691 5.4849 63.6033 4.98214C62.5577 4.73076 60.7952 4.70119 59.7347 4.90821C58.7638 5.10044 57.315 5.81022 56.5831 6.46085C55.2089 7.67338 54.4024 9.38868 54.2381 11.4145L54.1484 12.4348H56.1649H58.1962L58.3755 11.4589C58.7041 9.78793 59.3016 8.98943 60.5263 8.59018C60.9894 8.44231 61.2582 8.44231 61.9005 8.59018C63.3643 8.94507 64.0813 9.92101 64.0813 11.5328C64.0813 13.4403 63.2747 14.6085 60.0932 17.4033Z" fill="#FFFFFF"/>
</g>
<defs>
<clipPath id="clip0_3584_8577">
<rect width="173" height="36" fill="white"/>
</clipPath>
</defs>
</svg>